PathFileType	4	(X/Y/Z)	C:/Users/beibeiliu/ov580/test_trc\sequence.19_training_dense_left.trc
DataRate	CameraRate	NumFrames	NumMarkers	Units	OrigDataRate	OrigDataStartFrame	OrigNumFrames
120	120	16	19	mm	120	259	344
Frame#	Time	ThumbCMC			ThumbMCP			ThumbIP			ThumbTip			IndexMCP			IndexPIP			IndexTip			MiddleMCP			MiddlePIP			MiddleTip			RingMCP			RingPIP			RingTip			PinkyMCP			PinkyPIP			PinkyTip			BackHand1			BackHand2			BackHand3	
		X0	Y0	Z0	X1	Y1	Z1	X2	Y2	Z2	X3	Y3	Z3	X4	Y4	Z4	X5	Y5	Z5	X6	Y6	Z6	X7	Y7	Z7	X8	Y8	Z8	X9	Y9	Z9	X10	Y10	Z10	X11	Y11	Z11	X12	Y12	Z12	X13	Y13	Z13	X14	Y14	Z14	X15	Y15	Z15	X16	Y16	Z16	X17	Y17	Z17	X18	Y18	Z18	
258	2.15	-242.076	15.9778	17.3113	-251.696	-4.02899	3.28596	-261.826	-17.3017	-19.5708	-273.557	-22.2405	-33.7463	-278.749	3.72448	-35.3255	-298.335	-9.4423	-21.1225	-290.265	-5.26172	6.2321	-295.934	16.7969	-29.1628	-305.531	-1.26312	-4.47381	-284.875	14.1996	15.6772	-304.351	24.6192	-17.7667	-304.439	10.3423	5.65629	-281.994	25.8038	19.2692	-310.018	36.9147	-9.64835	-307.74	23.829	12.4576	-287.734	30.8057	19.1575	-268.52	59.7611	-5.92432	-251.968	63.4926	15.5345	-245.195	43.8789	1.54865	
259	2.15833	-240.74	12.8568	18.4395	-249.726	-9.29603	5.42522	-261.902	-19.667	-14.7345	-273.24	-31.8963	-26.1407	-279.232	-1.60001	-29.9859	-294.66	-19.759	-14.519	-286.435	-11.2111	13.7911	-295.301	8.65823	-24.095	-306.773	-5.46582	-1.02457	-280.858	8.5966	20.3046	-306.307	19.7756	-11.7628	-305.672	8.29949	10.4993	-279.406	21.0101	21.5927	-307.805	34.9835	-6.46917	-307.796	22.0546	16.8766	-282.022	28.6335	21.1523	-269.275	57.9667	-5.01144	-253.151	62.2002	16.5875	-241.346	38.9621	0.630412	
260	2.16667	-239.666	14.189	21.8727	-245.638	-11.1168	10.1019	-256.965	-23.8139	-6.02963	-268.152	-35.2236	-16.1227	-278.607	-9.76505	-24.2501	-293.683	-21.6183	-8.00568	-281.837	-14.0696	20.5456	-292.022	1.02333	-18.6471	-302.548	-12.429	5.89814	-278.168	4.91333	25.3418	-300.132	12.4942	-8.83752	-301.038	1.21997	15.7953	-279.794	17.9909	26.1583	-310.551	23.5327	1.41132	-304.652	14.9005	20.4138	-277.312	27.2676	24.2465	-271.82	52.197	-3.91553	-255.675	61.861	16.1048	-245.676	40.0986	3.80214	
261	2.175	-236.137	16.4725	27.8372	-241.419	-11.9909	15.784	-253.399	-26.8187	-2.06328	-262.034	-40.8856	-11.81	-269.813	-18.9623	-18.8562	-284.28	-31.9409	2.23743	-277.108	-13.2813	24.4099	-289.465	-7.77238	-13.6636	-298.264	-16.4502	14.0684	-279.107	2.43913	28.6158	-299.973	6.50031	-3.66059	-298.503	-1.15783	25.0411	-275.822	15.2508	29.4982	-306.8	18.3514	3.5674	-299.947	11.4483	26.1913	-276.669	25.7617	25.1105	-273.314	43.3002	-4.94317	-259.842	59.9511	13.8521	-240.68	35.777	4.79373	
262	2.18333	-234.217	17.2663	29.4081	-239.539	-9.47881	17.8646	-245.062	-26.8357	8.07779	-256.656	-46.5497	-7.26065	-268.829	-21.5875	-14.3526	-276.75	-35.779	9.08246	-269.125	-11.7038	27.1035	-284.331	-11.9251	-8.62121	-290.781	-24.0861	18.8616	-273.315	2.36307	30.6024	-297.923	-2.22784	2.24268	-292.161	-5.44957	29.7096	-272.809	12.4486	31.249	-307.628	9.66477	10.3577	-294.106	9.49645	33.2138	-275.487	22.9762	30.6977	-269.917	40.0826	-1.69457	-260.482	60.2853	17.6588	-245.463	36.9473	7.43774	
263	2.19167	-230.077	17.1177	31.8421	-231.965	-12.4233	20.6504	-239.782	-30.8048	8.94689	-249.549	-45.8998	-0.917192	-261.01	-27.1867	-9.02647	-270.663	-37.3238	15.2127	-259.255	-14.1721	27.856	-280.531	-18.0335	-4.41478	-285.336	-26.9568	25.3831	-266.458	1.7159	31.4975	-291.422	-10.0062	4.80078	-289.934	-11.4128	31.2439	-269.994	10.0566	32.0349	-302.323	4.11105	12.654	-288.996	3.42948	34.3958	-273.43	23.1303	29.924	-275.693	35.2336	-0.545378	-264.122	56.3285	18.403	-243.898	31.5907	5.5837	
264	2.2	-233.493	21.0409	32.189	-229.094	-6.62176	26.8004	-234.187	-31.0687	11.0479	-240.492	-46.5895	4.95835	-259.454	-28.3834	-5.16988	-261.837	-40.8386	17.6911	-254.08	-12.9758	28.6778	-279.695	-25.4851	1.35239	-276.738	-31.3021	28.9026	-262.237	-3.28413	34.265	-290.191	-13.8275	8.41864	-281.273	-15.6598	34.8957	-268.295	7.66472	33.4581	-301.147	-4.4179	18.8883	-289.409	-2.31443	38.0132	-274.365	16.1286	32.5501	-273.98	29.3895	0.937059	-267.785	51.0479	16.5425	-246.121	35.1513	7.29928	
265	2.20833	-231.226	19.4587	30.0714	-227.772	-4.54813	27.8876	-226.756	-27.1389	17.4721	-234.552	-45.0197	8.63236	-252.894	-27.2957	-1.56755	-256.468	-37.3114	26.1707	-250.812	-11.216	29.2421	-270.945	-27.1249	3.30898	-274.913	-33.6548	31.488	-261.767	-2.67757	36.953	-283.807	-21.3558	13.7186	-280.567	-16.0685	39.8635	-268.695	6.95799	37.5104	-298.06	-9.09573	19.4926	-284.712	-2.53268	41.476	-273.963	18.0432	34.6368	-276.418	28.3813	0.707124	-270.955	48.9932	13.8149	-245.462	33.1591	6.7725	
266	2.21667	-232.142	22.8195	31.7178	-226.003	-2.17654	28.3269	-223.045	-23.487	20.5811	-226.768	-43.3557	12.6096	-247.224	-28.0749	1.71502	-248.815	-39.2457	28.188	-245.746	-9.36949	32.7898	-267.985	-29.6917	6.53666	-267.087	-34.3307	36.4233	-258.994	0.070821	39.05	-278.773	-23.7352	15.5905	-275.422	-18.2895	42.2511	-268.622	12.5899	38.3517	-292.077	-14.773	24.4989	-283.569	-4.29397	46.0059	-272.245	16.9836	38.9047	-276.302	22.377	-0.474893	-277.434	47.1605	16.9373	-248.804	34.3264	9.0122	
267	2.225	-234.035	28.0102	33.8466	-220.475	2.29099	31.2043	-219.699	-17.3345	25.5187	-216.086	-40.2225	17.7018	-238.273	-25.5442	3.09708	-241.113	-33.2106	32.2631	-245.663	-2.90956	31.4019	-258.138	-32.5053	10.5352	-258.081	-34.6886	37.4024	-254.636	-0.774997	42.0869	-275.978	-25.0003	17.6711	-268.108	-16.6354	45.6486	-267.397	9.45567	42.1687	-285.96	-17.5917	24.8218	-278.845	-7.18998	46.3754	-272.596	16.7888	43.0229	-282.048	19.9622	1.81339	-282.975	45.2607	19.1839	-254.318	35.5821	10.7764	
268	2.23333	-236.696	34.4816	35.4293	-223.175	9.20564	33.3196	-211.561	-13.4123	26.062	-209.735	-31.0998	23.4995	-228.818	-23.2701	6.91212	-232.186	-31.7974	30.6729	-243.049	0.787257	32.9789	-251.872	-30.004	10.9799	-252.108	-29.3605	41.3033	-253.815	-0.673227	43.1924	-269.231	-26.4767	21.048	-262.407	-16.5456	44.9904	-265.599	8.26187	41.7962	-284.403	-21.3721	28.852	-274.481	-7.97063	46.8239	-273.026	18.4711	40.4603	-282.168	17.5459	2.6193	-286.214	43.3673	19.4935	-259.069	34.7787	7.79771	
269	2.24167	-238.767	39.7637	38.6059	-219.158	14.1225	37.1383	-210.663	-4.8929	31.8152	-204.128	-29.9231	26.0667	-225.086	-13.9966	5.60691	-227.346	-26.7819	30.7975	-238.549	2.02163	34.5929	-246.921	-25.2464	8.81922	-244.061	-30.8847	37.9203	-252.864	0.808442	41.5203	-257.313	-26.2236	21.3287	-257.142	-13.4956	46.5134	-268.056	12.3585	38.5092	-277.814	-22.9979	25.2799	-271.773	-9.64706	46.8985	-273.178	13.8722	44.9873	-280.508	15.2862	4.98101	-287.08	40.6393	16.9379	-258.797	39.5296	12.6773	
270	2.25	-245.697	38.471	39.6302	-220.39	15.5991	41.9963	-208.263	-3.19095	37.7364	-203.482	-25.0853	33.3643	-217.579	-8.65901	6.15669	-221.742	-21.7447	30.2001	-236.266	4.41678	33.708	-233.617	-23.0523	10.4266	-236.111	-28.2708	37.6974	-248.863	4.73537	37.1604	-250.662	-24.5786	18.7386	-254.123	-19.1249	44.908	-262.988	11.3911	36.7583	-270.401	-24.4188	21.7915	-264.289	-15.5184	43.7782	-271.674	13.6204	46.0063	-277.177	14.1675	3.23476	-289.523	35.5818	18.0173	-261.52	40.1306	11.1319	
271	2.25833	-244.604	39.4575	43.3273	-220.786	14.8891	47.3038	-209.482	-3.8591	43.1138	-209.468	-25.6275	34.3849	-209.373	-2.37143	9.62963	-212.544	-12.5052	33.2605	-232.824	11.0514	31.376	-226.593	-19.431	9.91042	-225.258	-24.1771	36.6574	-242.914	2.92283	39.5928	-244.155	-20.7241	15.7724	-244.892	-16.0369	42.9583	-260.451	6.65451	38.2138	-260.502	-23.3249	20.0268	-261.324	-15.687	45.5152	-268.77	9.38938	44.0268	-272.316	13.0722	0.897811	-287.988	35.6736	16.059	-259.214	39.4151	13.9572	
272	2.26667	-247.21	41.0241	48.6149	-227.353	16.6426	50.3356	-209.844	-5.83032	42.7966	-208.296	-23.7792	37.7071	-210.257	4.88447	8.72025	-205.327	-8.85548	30.6895	-228.735	9.29547	36.3944	-220.316	-13.17	8.16913	-225.131	-20.614	35.4067	-239.081	4.47156	37.0188	-236.202	-19.9679	16.299	-238.213	-18.3988	40.1658	-254.889	6.38506	37.5645	-255.811	-23.8098	14.9008	-254.608	-21.2514	41.8366	-264.926	-0.920986	47.785	-272.582	17.1124	2.31785	-288.409	36.6346	16.6909	-260.453	43.1396	17.4072	
273	2.275	-247.745	42.1352	46.7734	-227.535	19.8491	51.6868	-212.812	-0.51173	42.4301	-208.46	-20.5985	35.8736	-207.2	16.894	8.45675	-198.642	-1.43572	28.3213	-222.818	13.9738	39.8474	-217.76	-4.55634	6.88838	-217.306	-19.157	31.2116	-237.266	7.55041	35.1829	-233.025	-19.4553	13.7287	-233.08	-16.9668	38.6285	-254.813	6.35846	36.5103	-250.207	-21.3377	13.3245	-249.449	-22.9139	41.1903	-256.963	-2.2469	50.1908	-271.731	18.0123	2.55249	-290.221	33.3415	17.0131	-264.013	41.4375	15.9698	
